<svg xmlns="http://www.w3.org/2000/svg" viewBox="0 0 34 34" height="34" width="34"><title>castle-JP.svg</title><rect fill="none" x="0" y="0" width="34" height="34"></rect><rect x="1" y="1" rx="4" ry="4" width="31" height="31" stroke="#333" style="stroke-linejoin:round;stroke-miterlimit:4;" fill="#333" stroke-width="3"></rect><rect x="1" y="1" width="31" height="31" rx="4" ry="4" fill="#fcfcfc"></rect><path fill="#333" transform="translate(9 9)" d="M12.5,12.75a1,1,0,0,1-1-.9995V7.25H10a1,1,0,0,1-1-1v-2H6v2a1,1,0,0,1-1,1H3.5v4.5a1,1,0,0,1-2,0V6.25a1,1,0,0,1,1-1H4v-2a1,1,0,0,1,1-1h5a1,1,0,0,1,1,1v2h1.5a1,1,0,0,1,1,1v5.5a1,1,0,0,1-.9995,1Z"></path></svg>