<svg xmlns="http://www.w3.org/2000/svg" viewBox="0 0 34 34" height="34" width="34"><title>entrance.svg</title><rect fill="none" x="0" y="0" width="34" height="34"></rect><rect x="1" y="1" rx="4" ry="4" width="31" height="31" stroke="#333" style="stroke-linejoin:round;stroke-miterlimit:4;" fill="#333" stroke-width="3"></rect><rect x="1" y="1" width="31" height="31" rx="4" ry="4" fill="#fcfcfc"></rect><path fill="#333" transform="translate(9 9)" d="M7,6.5v-1a1,1,0,0,0-2,0v3ZM5,3A1,1,0,1,1,6,4,1,1,0,0,1,5,3m9,3h0a1,1,0,0,1-1,1H11.42a1,1,0,0,0-.71.29L5.29,12.71a1,1,0,0,1-.7.29H2a1,1,0,0,1-1-1H1a1,1,0,0,1,1-1H3.59a1,1,0,0,0,.7-.29L9.71,5.29A1,1,0,0,1,10.42,5H13A1,1,0,0,1,14,6Z"></path></svg>