<svg xmlns="http://www.w3.org/2000/svg" viewBox="0 0 34 34" height="34" width="34"><title>ferry-JP.svg</title><rect fill="none" x="0" y="0" width="34" height="34"></rect><rect x="1" y="1" rx="4" ry="4" width="31" height="31" stroke="#333" style="stroke-linejoin:round;stroke-miterlimit:4;" fill="#333" stroke-width="3"></rect><rect x="1" y="1" width="31" height="31" rx="4" ry="4" fill="#fcfcfc"></rect><path fill="#333" transform="translate(9 9)" d="M3,7c0,0.5,0,5,0,5c0,0.6,0.4,1,1,1h6c0.6,0,1-0.4,1-1c0,0,0-4.5,0-5c0-2-3-7-4-7S3,5,3,7z M5,11V8c0-3,2-5.5,2-5.5S9,5,9,8
	v3H5z"></path></svg>