<svg xmlns="http://www.w3.org/2000/svg" viewBox="0 0 34 34" height="34" width="34"><title>fire-station.svg</title><rect fill="none" x="0" y="0" width="34" height="34"></rect><rect x="1" y="1" rx="4" ry="4" width="31" height="31" stroke="#333" style="stroke-linejoin:round;stroke-miterlimit:4;" fill="#333" stroke-width="3"></rect><rect x="1" y="1" width="31" height="31" rx="4" ry="4" fill="#fcfcfc"></rect><path fill="#333" transform="translate(9 9)" d="M7.5,0.5L5,4.5l-1.5-2
	C2.9452,3.4753,0.8036,5.7924,0.8036,8.3036C0.8036,12.002,3.8017,15,7.5,15s6.6964-2.998,6.6964-6.6964
	c0-2.5112-2.1416-4.8283-2.6964-5.8036l-1.5,2L7.5,0.5z M7.5,7c0,0,2.5,2.5618,2.5,4.5c0,0.8371-0.8259,2-2.5,2S5,12.3371,5,11.5
	C5,9.6283,7.5,7,7.5,7z"></path></svg>