<svg xmlns="http://www.w3.org/2000/svg" viewBox="0 0 34 34" height="34" width="34"><title>information.svg</title><rect fill="none" x="0" y="0" width="34" height="34"></rect><rect x="1" y="1" rx="4" ry="4" width="31" height="31" stroke="#333" style="stroke-linejoin:round;stroke-miterlimit:4;" fill="#333" stroke-width="3"></rect><rect x="1" y="1" width="31" height="31" rx="4" ry="4" fill="#fcfcfc"></rect><path fill="#333" transform="translate(9 9)" d="M7.5,1
	C6.7,1,6,1.7,6,2.5S6.7,4,7.5,4S9,3.3,9,2.5S8.3,1,7.5,1z M4,5v1c0,0,2,0,2,2v2c0,2-2,2-2,2v1h7v-1c0,0-2,0-2-2V6c0-0.5-0.5-1-1-1H4
	z"></path></svg>