<svg xmlns="http://www.w3.org/2000/svg" viewBox="0 0 34 34" height="34" width="34"><title>karaoke.svg</title><rect fill="none" x="0" y="0" width="34" height="34"></rect><rect x="1" y="1" rx="4" ry="4" width="31" height="31" stroke="#333" style="stroke-linejoin:round;stroke-miterlimit:4;" fill="#333" stroke-width="3"></rect><rect x="1" y="1" width="31" height="31" rx="4" ry="4" fill="#fcfcfc"></rect><path fill="#333" transform="translate(9 9)" d="M12.1,2.952A2.988,2.988,0,0,0,6.99,4.917l3.142,3.142A2.988,2.988,0,0,0,12.1,2.952Zm-7.428,5.3L2.55,10.377a1,1,0,0,0,0,1.414l.707.707a1,1,0,0,0,1.414,0l2.121-2.121L8.914,8.255,6.793,6.134Zm.741,2.087-.707-.707L6.793,7.548l.707.707Z"></path></svg>