<svg xmlns="http://www.w3.org/2000/svg" viewBox="0 0 34 34" height="34" width="34"><title>landmark-JP.svg</title><rect fill="none" x="0" y="0" width="34" height="34"></rect><rect x="1" y="1" rx="4" ry="4" width="31" height="31" stroke="#333" style="stroke-linejoin:round;stroke-miterlimit:4;" fill="#333" stroke-width="3"></rect><rect x="1" y="1" width="31" height="31" rx="4" ry="4" fill="#fcfcfc"></rect><path fill="#333" transform="translate(9 9)" d="M9.5,4.5a2,2,0,1,1-2-2A2,2,0,0,1,9.5,4.5Zm-6,4a2,2,0,1,0,2,2A2,2,0,0,0,3.5,8.5Zm8,0a2,2,0,1,0,2,2A2,2,0,0,0,11.5,8.5Z"></path></svg>