<svg xmlns="http://www.w3.org/2000/svg" viewBox="0 0 34 34" height="34" width="34"><title>monument-JP.svg</title><rect fill="none" x="0" y="0" width="34" height="34"></rect><rect x="1" y="1" rx="4" ry="4" width="31" height="31" stroke="#333" style="stroke-linejoin:round;stroke-miterlimit:4;" fill="#333" stroke-width="3"></rect><rect x="1" y="1" width="31" height="31" rx="4" ry="4" fill="#fcfcfc"></rect><path fill="#333" transform="translate(9 9)" d="M12,13H4c-0.5,0-1-0.5-1-1V5c0-2,0.8-4,4-4c3.1,0,4,2,4,4v6h1c0.5,0,1,0.5,1,1S12.5,13,12,13z M5,11h4V5c0-1,0-2-2-2
	S5,4,5,5V11z"></path></svg>