<svg xmlns="http://www.w3.org/2000/svg" viewBox="0 0 34 34" height="34" width="34"><title>residential-community.svg</title><rect fill="none" x="0" y="0" width="34" height="34"></rect><rect x="1" y="1" rx="4" ry="4" width="31" height="31" stroke="#333" style="stroke-linejoin:round;stroke-miterlimit:4;" fill="#333" stroke-width="3"></rect><rect x="1" y="1" width="31" height="31" rx="4" ry="4" fill="#fcfcfc"></rect><path fill="#333" transform="translate(9 9)" d="M11.8,13.5V11c0.7-0.1,1.2-0.7,1.2-1.5S12.3,8,11.5,8S10,8.7,10,9.5c0,0.7,0.5,1.4,1.2,1.5v2.5H7V2H2v11.5H1V14h13v-0.5
	H11.8z M6,11H3v-1h3V11z M6,9H3V8h3V9z M6,7H3V6h3V7z M6,5H3V4h3V5z"></path></svg>