<svg xmlns="http://www.w3.org/2000/svg" viewBox="0 0 34 34" height="34" width="34"><title>skateboard.svg</title><rect fill="none" x="0" y="0" width="34" height="34"></rect><rect x="1" y="1" rx="4" ry="4" width="31" height="31" stroke="#333" style="stroke-linejoin:round;stroke-miterlimit:4;" fill="#333" stroke-width="3"></rect><rect x="1" y="1" width="31" height="31" rx="4" ry="4" fill="#fcfcfc"></rect><path fill="#333" transform="translate(9 9)" d="M11,8H4A2.0024,2.0024,0,0,1,2,6H3A1.001,1.001,0,0,0,4,7h7a1.001,1.001,0,0,0,1-1h1A2.0024,2.0024,0,0,1,11,8Zm0,1a1,1,0,1,0,1,1A1,1,0,0,0,11,9ZM4,9a1,1,0,1,0,1,1A1,1,0,0,0,4,9Z"></path></svg>